<svg id="visual" viewBox="0 0 900 600" width="900" height="600" xmlns="http://www.w3.org/2000/svg" xmlns:xlink="http://www.w3.org/1999/xlink" version="1.1"><rect x="0" y="0" width="900" height="600" fill="#001220"></rect><path d="M0 194L21.5 195.2C43 196.3 86 198.7 128.8 205.8C171.7 213 214.3 225 257.2 216.5C300 208 343 179 385.8 175.5C428.7 172 471.3 194 514.2 204.3C557 214.7 600 213.3 642.8 215C685.7 216.7 728.3 221.3 771.2 225.8C814 230.3 857 234.7 878.5 236.8L900 239L900 0L878.5 0C857 0 814 0 771.2 0C728.3 0 685.7 0 642.8 0C600 0 557 0 514.2 0C471.3 0 428.7 0 385.8 0C343 0 300 0 257.2 0C214.3 0 171.7 0 128.8 0C86 0 43 0 21.5 0L0 0Z" fill="#fa7268"></path><path d="M0 183L21.5 175.8C43 168.7 86 154.3 128.8 157C171.7 159.7 214.3 179.3 257.2 184.7C300 190 343 181 385.8 169.2C428.7 157.3 471.3 142.7 514.2 134.7C557 126.7 600 125.3 642.8 126.8C685.7 128.3 728.3 132.7 771.2 137.8C814 143 857 149 878.5 152L900 155L900 0L878.5 0C857 0 814 0 771.2 0C728.3 0 685.7 0 642.8 0C600 0 557 0 514.2 0C471.3 0 428.7 0 385.8 0C343 0 300 0 257.2 0C214.3 0 171.7 0 128.8 0C86 0 43 0 21.5 0L0 0Z" fill="#ef5f67"></path><path d="M0 114L21.5 115.7C43 117.3 86 120.7 128.8 119C171.7 117.3 214.3 110.7 257.2 108.8C300 107 343 110 385.8 108.3C428.7 106.7 471.3 100.3 514.2 102.5C557 104.7 600 115.3 642.8 125.3C685.7 135.3 728.3 144.7 771.2 147.8C814 151 857 148 878.5 146.5L900 145L900 0L878.5 0C857 0 814 0 771.2 0C728.3 0 685.7 0 642.8 0C600 0 557 0 514.2 0C471.3 0 428.7 0 385.8 0C343 0 300 0 257.2 0C214.3 0 171.7 0 128.8 0C86 0 43 0 21.5 0L0 0Z" fill="#e34c67"></path><path d="M0 65L21.5 70.8C43 76.7 86 88.3 128.8 92.2C171.7 96 214.3 92 257.2 86C300 80 343 72 385.8 76.3C428.7 80.7 471.3 97.3 514.2 96.8C557 96.3 600 78.7 642.8 74.8C685.7 71 728.3 81 771.2 86.2C814 91.3 857 91.7 878.5 91.8L900 92L900 0L878.5 0C857 0 814 0 771.2 0C728.3 0 685.7 0 642.8 0C600 0 557 0 514.2 0C471.3 0 428.7 0 385.8 0C343 0 300 0 257.2 0C214.3 0 171.7 0 128.8 0C86 0 43 0 21.5 0L0 0Z" fill="#d53867"></path><path d="M0 39L21.5 43.7C43 48.3 86 57.7 128.8 62.2C171.7 66.7 214.3 66.3 257.2 59.3C300 52.3 343 38.7 385.8 32.2C428.7 25.7 471.3 26.3 514.2 30.3C557 34.3 600 41.7 642.8 47.3C685.7 53 728.3 57 771.2 59.2C814 61.3 857 61.7 878.5 61.8L900 62L900 0L878.5 0C857 0 814 0 771.2 0C728.3 0 685.7 0 642.8 0C600 0 557 0 514.2 0C471.3 0 428.7 0 385.8 0C343 0 300 0 257.2 0C214.3 0 171.7 0 128.8 0C86 0 43 0 21.5 0L0 0Z" fill="#c62368"></path></svg>